<?xml version="1.0" encoding="UTF-8" standalone="no"?>
<svg
   xmlns:dc="http://purl.org/dc/elements/1.1/"
   xmlns:cc="http://creativecommons.org/ns#"
   xmlns:rdf="http://www.w3.org/1999/02/22-rdf-syntax-ns#"
   xmlns:svg="http://www.w3.org/2000/svg"
   xmlns="http://www.w3.org/2000/svg"
   viewBox="0 0 516.28412 180.088"
   height="180.088"
   width="516.28412"
   xml:space="preserve"
   id="svg2"
   version="1.1"><metadata
     id="metadata8"><rdf:RDF><cc:Work
         rdf:about=""><dc:format>image/svg+xml</dc:format><dc:type
           rdf:resource="http://purl.org/dc/dcmitype/StillImage" /><dc:title></dc:title></cc:Work></rdf:RDF></metadata><defs
     id="defs6"><clipPath
       id="clipPath18"
       clipPathUnits="userSpaceOnUse"><path
         id="path16"
         d="M 0,792 H 1224 V 0 H 0 Z" /></clipPath></defs><g
     transform="matrix(1.3333333,0,0,-1.3333333,-341.93852,827.98385)"
     id="g10"><g
       transform="translate(306.3299,485.9219)"
       id="g88"><path
         id="path90"
         style="fill:#f15c2e;fill-opacity:1;fill-rule:nonzero;stroke:none"
         d="m 0,0 c -27.496,0 -49.876,22.379 -49.876,49.883 v 35.301 c 0,27.504 22.38,49.882 49.876,49.882 27.497,0 49.874,-22.378 49.874,-49.882 V 49.883 C 49.874,22.379 27.497,0 0,0" /></g><g
       transform="translate(312.9549,597.3311)"
       id="g92"><path
         id="path94"
         style="fill:#ffffff;fill-opacity:1;fill-rule:nonzero;stroke:none"
         d="M 0,0 V -17.571 -35.144 H -13.277 V -52.715 H 0 0.026 17.572 V -35.144 -17.571 0 Z" /></g><g
       transform="translate(312.9549,527.045)"
       id="g96"><path
         id="path98"
         style="fill:#ffffff;fill-opacity:1;fill-rule:nonzero;stroke:none"
         d="M 0,0 H -17.521 V 17.571 35.143 H -35.092 V 17.571 0 -17.572 h 17.547 0.024 H 0 0.026 17.572 V 0 13.021 H 0 Z" /></g><g
       transform="translate(430.9099,543.5333)"
       id="g136"><path
         id="path138"
         style="fill:#ffffff;fill-opacity:1;fill-rule:nonzero;stroke:none"
         d="m 0,0 v 15.948 c 0,17.706 -5.276,24.038 -25.445,24.038 h -9.264 c -4.456,0 -6.333,-1.875 -6.333,-6.332 v -51.36 c 0,-4.456 1.877,-6.333 6.333,-6.333 h 9.264 C -5.276,-24.039 0,-18.059 0,0 m -47.491,33.89 c 0,8.559 3.636,12.195 12.195,12.195 h 9.851 c 23.335,0 32.013,-7.153 32.013,-30.137 L 6.568,0 c 0,-22.162 -8.678,-30.137 -32.013,-30.137 h -9.851 c -8.559,0 -12.195,3.636 -12.195,12.196 z" /></g><g
       transform="translate(453.4265,568.0411)"
       id="g140"><path
         id="path142"
         style="fill:#ffffff;fill-opacity:1;fill-rule:nonzero;stroke:none"
         d="M 0,0 C 0,2.229 0.586,2.814 2.814,2.814 H 3.4 C 5.629,2.814 6.215,2.229 6.215,0 v -51.83 c 0,-2.229 -0.586,-2.815 -2.815,-2.815 H 2.814 C 0.586,-54.645 0,-54.059 0,-51.83 Z" /></g><g
       transform="translate(517.1854,547.8721)"
       id="g144"><path
         id="path146"
         style="fill:#ffffff;fill-opacity:1;fill-rule:nonzero;stroke:none"
         d="m 0,0 c 0,11.844 -3.87,18.176 -18.528,18.176 -14.54,0 -18.528,-6.332 -18.528,-18.176 v -11.491 c 0,-11.844 3.988,-18.177 18.528,-18.177 C -3.87,-29.668 0,-23.335 0,-11.491 Z M -43.271,-11.491 V 0 c 0,14.541 6.333,24.039 24.743,24.039 18.761,0 24.86,-9.381 24.86,-24.039 v -11.491 c 0,-14.541 -6.332,-24.039 -24.86,-24.039 -18.645,0 -24.743,9.381 -24.743,24.039" /></g><g
       transform="translate(541.076,536.3809)"
       id="g148"><path
         id="path150"
         style="fill:#ffffff;fill-opacity:1;fill-rule:nonzero;stroke:none"
         d="m 0,0 c 0,-11.844 3.87,-18.177 18.528,-18.177 14.658,0 18.528,6.333 18.528,18.177 v 11.491 c 0,11.844 -3.87,18.176 -18.528,18.176 C 3.87,29.667 0,23.335 0,11.491 Z m 43.388,0 c 0,-14.894 -6.919,-24.039 -24.86,-24.039 -18.294,0 -24.743,9.145 -24.743,24.039 v 11.374 c 0,14.658 5.981,24.156 24.156,24.156 10.554,0 16.3,-3.517 19.115,-9.381 v 30.137 c 0,2.228 0.587,2.815 2.814,2.815 h 0.703 c 2.229,0 2.815,-0.587 2.815,-2.815 z" /></g><g
       transform="translate(602.742,545.1749)"
       id="g152"><path
         id="path154"
         style="fill:#ffffff;fill-opacity:1;fill-rule:nonzero;stroke:none"
         d="m 0,0 h 34.944 v 4.691 c 0,11.961 -6.919,16.416 -17.472,16.416 C 6.566,21.107 0,16.652 0,4.691 Z m 40.572,-2.697 c -0.234,-2.228 -0.82,-2.814 -3.048,-2.814 H 0 v -4.104 c 0,-12.781 5.863,-17.356 19.348,-17.356 7.387,0 14.189,1.643 17.004,2.58 1.993,0.704 2.58,0 2.58,-2.11 v -0.704 c 0,-2.11 -0.587,-2.345 -2.58,-3.049 -2.932,-1.055 -9.733,-2.579 -16.886,-2.579 -17.004,0 -25.681,6.566 -25.681,24.039 V 2.697 c 0,13.837 5.628,24.039 23.804,24.039 14.541,0 23.336,-7.387 23.336,-22.632 0,-3.283 -0.235,-5.746 -0.353,-6.801" /></g></g></svg>